<svg xmlns="http://www.w3.org/2000/svg" viewBox="0 0 160 210">
<defs><linearGradient id="sand" x1="0" y1="0" x2="0" y2="1"><stop stop-color="#d9c6ec"/><stop offset="1" stop-color="#b99bd5"/></linearGradient></defs>
<g fill="none" stroke="#6f5795" stroke-width="4" stroke-linecap="round" stroke-linejoin="round">
<path d="M35 22h90M35 188h90"/><path d="M47 27c0 36 23 45 33 57-10 12-33 23-33 59v37M113 27c0 36-23 45-33 57 10 12 33 23 33 59v37"/>
</g>
<path d="M57 46h46c-4 20-14 27-23 36-9-9-19-16-23-36Z" fill="url(#sand)" opacity=".82"/>
<path d="M80 91c-8 12-20 22-25 52h50c-5-30-17-40-25-52Z" fill="url(#sand)" opacity=".9"/>
<g fill="none" stroke="#8fb39a" stroke-width="3" stroke-linecap="round">
<path d="M36 171c-8 10-14 20-16 31"/><path d="M28 184l-11-4M25 191l-12 2M31 178l-5-11"/>
</g>
</svg>